PathFileType	4	(X/Y/Z)	9_coords_data.trc
DataRate	CameraRate	NumFrames	NumMarkers	Units	OrigDataRate	OrigDataStartFrame	OrigNumFrames
30.0	30.0	4	21	m	30.0	1	41
Frame#	Time	THUMB_TIP	THUMB_IP	THUMB_MCP	THUMB_CMC	INDEX_TIP	INDEX_DIP	INDEX_PIP	INDEX_MCP	MIDDLE_TIP	MIDDLE_DIP	MIDDLE_PIP	MIDDLE_MCP	RING_TIP	RING_DIP	RING_PIP	RING_MCP	PINKY_TIP	PINKY_DIP	PINKY_PIP	PINKY_MCP	WRIST
X1	Y1	Z1	X2	Y2	Z2	X3	Y3	Z3	X4	Y4	Z4	X5	Y5	Z5	X6	Y6	Z6	X7	Y7	Z7	X8	Y8	Z8	X9	Y9	Z9	X10	Y10	Z10	X11	Y11	Z11	X12	Y12	Z12	X13	Y13	Z13	X14	Y14	Z14	X15	Y15	Z15	X16	Y16	Z16	X17	Y17	Z17	X18	Y18	Z18	X19	Y19	Z19	X20	Y20	Z20	X21	Y21	Z21
0	0.0	0.004321149826049805	-0.10321199798583984	0.96197998046875	0.010419899940490723	-0.08023509979248047	0.9745050048828126	0.007504330158233642	-0.05985340118408203	1.000530029296875	0.005588449954986572	-0.03273730087280274	1.0226099853515624	0.011824000358581542	-0.048817699432373046	0.875323974609375	0.014447999954223632	-0.04714450073242187	0.8990700073242187	0.011261799812316894	-0.043437198638916014	0.9223690185546874	0.007410379886627197	-0.035875598907470704	0.9648939819335938	0.013556799888610839	-0.008900279998779298	0.8616710205078125	0.017133499145507814	-0.01217609977722168	0.8867899780273437	0.01120680046081543	-0.013702099800109863	0.9178770141601562	-0.004668179988861084	-0.013834400177001953	0.9613250122070313	0.014894599914550782	0.018995599746704103	0.8759609985351563	0.012860300064086914	0.01685099983215332	0.8999979858398437	0.009215579986572266	0.013704799652099609	0.9271640014648438	0.006938819885253906	0.006108749866485596	0.9731090087890625	0.025227199554443358	0.059125	0.9209409790039063	0.018310800552368164	0.05177119827270508	0.9386430053710938	0.014287799835205077	0.044280799865722656	0.9539990234375	0.014099699974060059	0.03054990005493164	0.97922802734375	-0.020644899368286132	-0.008806839942932129	1.0399599609375
1	0.03333333333333333	0.005016729831695556	-0.1031050033569336	0.9631729736328125	0.010010399818420411	-0.08016290283203124	0.9767349853515624	0.0074561600685119625	-0.0604375	0.9997410278320312	0.005440139770507812	-0.02985659980773926	1.0206400146484376	0.012754599571228027	-0.04931389999389649	0.8762730102539062	0.013832300186157227	-0.046569900512695314	0.8992650146484376	0.011850600242614745	-0.04328200149536133	0.9217949829101563	0.007067920207977295	-0.03632270050048828	0.9616480102539062	0.01412030029296875	-0.008263790130615234	0.8621229858398437	0.015855299949645997	-0.011597700119018554	0.8873510131835938	0.011719900131225586	-0.013102899551391602	0.9173829956054688	0.0048412299156188965	-0.013729599952697754	0.9602479858398437	0.013717499732971192	0.018647100448608397	0.8754169921875	0.012667900085449218	0.016654300689697265	0.9003880004882813	0.008359330177307129	0.013107199668884278	0.9283289794921875	0.0067415499687194826	0.007120359897613526	0.9679710083007812	0.024035600662231444	0.059254398345947264	0.9213070068359375	0.018521600723266602	0.05171849822998047	0.9396170043945312	0.012909299850463867	0.043644901275634765	0.9559140014648437	0.009759710311889649	0.027723800659179686	0.980625	-0.021030099868774414	-0.008957509994506835	1.0443599853515626
2	0.06666666666666667	0.005415609836578369	-0.10310600280761718	0.9631420288085938	0.010278499603271485	-0.08018599700927734	0.9766610107421875	0.007830130100250245	-0.06037229919433594	0.9996119995117188	0.005589270114898682	-0.029925300598144532	1.0204600219726563	0.012721799850463867	-0.04956439971923828	0.8762039794921875	0.013803199768066406	-0.04677750015258789	0.8992109985351563	0.011798100471496582	-0.04341230010986328	0.921760986328125	0.006960259914398193	-0.036393798828125	0.9616229858398437	0.01387339973449707	-0.008438240051269532	0.861989990234375	0.015724599838256834	-0.011744999885559082	0.8872030029296875	0.011612099647521973	-0.013216699600219727	0.91727001953125	0.004757540225982666	-0.013816499710083007	0.9601510009765625	0.013553899765014648	0.018492799758911133	0.87522802734375	0.01257040023803711	0.016500099182128906	0.90014697265625	0.00829800033569336	0.01300059986114502	0.9281119995117187	0.0066691598892211915	0.00702092981338501	0.9677620239257813	0.023821199417114258	0.059062698364257815	0.9210020141601563	0.018317300796508788	0.05156399917602539	0.9393369750976562	0.01271749973297119	0.043535900115966794	0.955666015625	0.00963794994354248	0.027671899795532227	0.9804669799804687	-0.021027200698852538	-0.00902692985534668	1.044239990234375
3	0.1	0.006000559806823729	-0.1032959976196289	0.963176025390625	0.010716699600219726	-0.08029830169677735	0.9766669921875	0.008089920043945313	-0.060486198425292965	0.9995499877929688	0.005504640102386474	-0.029904699325561522	1.0204400024414062	0.013034899711608887	-0.04991910171508789	0.8761810302734375	0.014103400230407714	-0.0470702018737793	0.8991630249023438	0.012092800140380859	-0.04366529846191406	0.9216729736328125	0.007151030063629151	-0.03658639907836914	0.9615339965820312	0.013893500328063964	-0.00879757022857666	0.86185302734375	0.01574209976196289	-0.012053799629211426	0.887030029296875	0.01163479995727539	-0.013473699569702149	0.9171699829101563	0.00491903018951416	-0.013998200416564941	0.96002197265625	0.013205900192260742	0.01807859992980957	0.8750120239257813	0.01231410026550293	0.016158199310302733	0.8999320068359375	0.008198089599609375	0.012728300094604492	0.9279089965820313	0.006702849864959717	0.00686952018737793	0.9676290283203125	0.023571300506591796	0.05874259948730469	0.92068798828125	0.01809119987487793	0.0512677001953125	0.9390280151367187	0.012560099601745605	0.04325500106811524	0.9554039916992187	0.009572270393371583	0.02751860046386719	0.9802670288085937	-0.021021799087524416	-0.009082619667053222	1.0442900390625
